<svg width="42" height="43" viewBox="0 0 42 43" fill="none" xmlns="http://www.w3.org/2000/svg">
<path d="M27.1234 0.20526C26.918 0.40252 26.918 0.427178 26.918 1.83266C26.918 3.15594 26.9262 3.27101 27.0824 3.4354C27.3289 3.69841 27.7563 3.68197 27.9782 3.40252C28.1344 3.19704 28.1508 3.07375 28.1508 1.79156C28.1508 0.427178 28.1508 0.40252 27.9454 0.20526C27.8385 0.0901914 27.6495 -0.000219584 27.5344 -0.000219584C27.4193 -0.000219584 27.2303 0.0901914 27.1234 0.20526Z" fill="#1B2B4D"/>
<path d="M20.2188 1.76686C19.964 2.01343 19.9558 2.27645 20.2024 2.597C20.5969 3.13124 21.8298 4.50384 21.9531 4.55316C22.2078 4.65179 22.4544 4.60247 22.627 4.41343C22.8572 4.16686 22.8572 3.87919 22.627 3.56686C22.2243 3.03261 20.9914 1.66001 20.8681 1.61069C20.6215 1.51206 20.4161 1.56138 20.2188 1.76686Z" fill="#1B2B4D"/>
<path d="M33.9868 1.78341C33.8553 1.91492 33.4114 2.39985 33.0005 2.87656C32.4005 3.57519 32.2607 3.78889 32.2607 4.00259C32.2607 4.45464 32.6799 4.71766 33.1155 4.55327C33.2553 4.49574 34.8991 2.61355 35.0059 2.38341C35.1539 2.05464 34.7676 1.56149 34.3566 1.56149C34.2909 1.56149 34.1265 1.66012 33.9868 1.78341Z" fill="#1B2B4D"/>
<path d="M20.4163 6.59984C20.1122 6.75601 19.767 7.17518 18.23 9.20532C17.2273 10.5368 16.3642 11.7368 16.3149 11.8683C16.1834 12.2382 16.2163 12.9122 16.3889 13.282C16.5862 13.7094 26.1615 22.956 26.7122 23.2519C27.2218 23.5231 27.8547 23.5231 28.3478 23.2519C28.9067 22.956 38.4903 13.7012 38.6793 13.2738C38.8766 12.8464 38.8766 12.2135 38.6793 11.7861C38.5889 11.5971 38.2026 11.0135 37.8081 10.4957C37.0108 9.43546 36.7889 9.29573 36.3779 9.59162C35.9752 9.89573 36.0327 10.1834 36.6903 11.0546C37.0108 11.482 37.2738 11.8519 37.2738 11.8766C37.2738 11.9012 36.1807 11.9177 34.8492 11.9177H32.4327L32.2684 11.3587C32.1697 11.0546 31.8821 10.093 31.619 9.22176L31.1341 7.64368H32.5889H34.0519L34.5204 8.17792C34.8821 8.5971 35.0382 8.71217 35.219 8.71217C35.4985 8.71217 35.7697 8.49847 35.8355 8.21902C35.9259 7.84916 35.0711 6.76423 34.5122 6.52587C34.2821 6.42724 33.0656 6.4108 27.5095 6.4108H20.7779L20.4163 6.59984ZM23.8766 7.72587C23.8766 7.77518 23.6136 8.67107 23.3012 9.72313C22.9807 10.767 22.7012 11.6957 22.6766 11.7697C22.6355 11.9094 22.4464 11.9177 20.2108 11.9177C18.8793 11.9177 17.7944 11.9012 17.7944 11.8766C17.7944 11.8026 20.7697 7.85738 20.9012 7.74231C21.0656 7.61902 23.8766 7.59436 23.8766 7.72587ZM30.4766 9.73135C30.8218 10.8738 31.1095 11.8355 31.1095 11.8683C31.1095 11.893 29.4985 11.9177 27.5341 11.9177C25.5697 11.9177 23.9588 11.8848 23.9588 11.8437C23.9588 11.8108 24.2382 10.8656 24.5752 9.73957C24.9122 8.62176 25.1916 7.69299 25.1916 7.67655C25.1916 7.66012 26.2355 7.64368 27.5177 7.64368H29.8519L30.4766 9.73135ZM24.1396 16.619C24.9862 18.5341 25.7752 20.3177 25.8903 20.5889L26.1122 21.082L25.7095 20.704C25.019 20.0464 18.756 14.0464 18.2875 13.5861L17.8355 13.1505H20.219H22.6026L24.1396 16.619ZM30.8958 13.619C30.7807 13.882 29.9834 15.6985 29.1204 17.6546C28.0273 20.1286 27.5259 21.1807 27.4766 21.0903C27.419 20.9834 24.3944 14.1697 24.0738 13.4135L23.9588 13.1505H27.5341H31.1095L30.8958 13.619ZM36.8629 13.504C36.304 14.0546 29.9834 20.104 29.4327 20.6218C29.1697 20.8766 28.9642 21.0409 28.9889 20.9998C29.0136 20.9505 29.8026 19.167 30.7396 17.03L32.4574 13.1505H34.841H37.2327L36.8629 13.504Z" fill="#1B2B4D"/>
<path d="M18.4521 25.5204C15.7151 26.1286 13.4301 26.6218 13.3808 26.63C13.3233 26.63 13.274 26.5478 13.274 26.4409C13.274 26.3341 13.1753 26.0546 13.0603 25.8245C12.9041 25.5039 12.7479 25.3396 12.4685 25.167L12.0822 24.945H9.23014C6.40274 24.945 6.36986 24.945 6.19726 25.1259C5.97534 25.3396 5.96712 25.7587 6.1726 25.9807C6.30411 26.1286 6.46849 26.1368 8.99178 26.1368C11.2849 26.1368 11.7041 26.1533 11.8603 26.2683L12.0411 26.3916V33.493C12.0411 39.8382 12.0247 40.6026 11.9096 40.7176C11.7945 40.8327 11.1945 40.8492 6.48493 40.8492H1.19178V33.493V26.1368H2.79452C4.29041 26.1368 4.40548 26.1286 4.56164 25.9724C4.78356 25.7505 4.77534 25.3067 4.55342 25.1012C4.39726 24.9615 4.23288 24.945 2.63836 24.945C1.05205 24.945 0.879452 24.9615 0.624658 25.1094C0.468493 25.1998 0.271233 25.3807 0.172603 25.5039L0 25.7341V33.493C0 41.1944 0 41.2519 0.172603 41.4738C0.263014 41.5971 0.443836 41.7779 0.567123 41.8683C0.789041 42.0409 0.879452 42.0409 6.39452 42.0656L12 42.082L12.3699 41.9012C12.8548 41.6546 13.1836 41.1779 13.2493 40.619C13.2904 40.2245 13.3151 40.1834 13.4712 40.2245C15.263 40.7341 17.6301 41.1861 19.3562 41.3423C20.5644 41.4492 23.3014 41.4492 24.5753 41.3423C28.2493 41.03 31.9479 39.9944 35.3589 38.3341C36.5753 37.7341 36.8219 37.43 36.4438 36.9533C36.2055 36.6492 35.9178 36.6738 35.0712 37.1012C31.726 38.7779 28.0931 39.8053 24.3945 40.1176C22.9151 40.2409 19.5863 40.167 18.2877 39.9861C17.0466 39.8135 15.1644 39.4272 14.137 39.1396L13.3151 38.9012V33.4108V27.9122L15.8219 27.3615C17.2027 27.0656 19.5288 26.556 21 26.2272C22.4712 25.9067 23.7781 25.6437 23.9014 25.6437C24.6082 25.6437 25.0767 26.4738 24.7644 27.1642C24.6986 27.3039 23.926 27.9039 22.611 28.8245C21.4767 29.6218 20.3836 30.419 20.1863 30.6081C19.7753 31.0026 19.3973 31.7341 19.3151 32.3012C19.1589 33.4683 19.8658 34.7341 20.9507 35.2519C21.4274 35.4738 22.9726 35.8766 24 36.0492C25.126 36.2464 27.5589 36.2382 28.6849 36.0492C31.2575 35.6135 32.6795 35.0218 35.8767 33.082C38.4575 31.5122 38.6795 31.3971 39.1562 31.3971C39.6493 31.3971 40.3151 31.7094 40.5616 32.0546C40.8164 32.4081 40.8575 32.9259 40.6685 33.2629C40.5041 33.5587 39.863 34.0848 38.5397 35.0218C37.5699 35.7039 37.4384 35.893 37.611 36.2793C37.726 36.5176 38.0959 36.6985 38.3342 36.6163C38.5479 36.5505 40.1096 35.4327 40.9233 34.767C41.737 34.1094 42 33.5998 42 32.7122C42 32.2026 41.9589 32.0218 41.7781 31.6766C41.4986 31.1423 40.9233 30.6327 40.3233 30.3944C39.7315 30.1642 38.6384 30.1313 38.1288 30.345C37.9397 30.419 36.8301 31.0683 35.663 31.7834C34.4877 32.4985 33.1479 33.2711 32.6795 33.5094C30.6 34.545 27.9288 35.1039 25.6931 34.9807C23.9671 34.8738 21.8959 34.4135 21.2301 33.9779C20.4822 33.493 20.3096 32.3259 20.8849 31.6519C21 31.5122 22.0027 30.7642 23.1205 29.9834C24.2384 29.2026 25.2658 28.4546 25.4137 28.3313C25.5616 28.1998 25.7753 27.8957 25.8986 27.6492C26.0877 27.2629 26.1123 27.1313 26.0795 26.6135C26.0137 25.3313 25.1918 24.493 23.9589 24.4355C23.5233 24.419 22.537 24.6081 18.4521 25.5204Z" fill="#1B2B4D"/>
<path d="M7.84895 34.8492C7.70101 34.9972 7.68457 35.1204 7.68457 35.9177C7.68457 36.7725 7.69279 36.8382 7.89005 37.0273C8.11197 37.2574 8.23526 37.2739 8.53115 37.1424C8.83526 37.0026 8.91745 36.7314 8.91745 35.8848C8.91745 35.2355 8.89279 35.0876 8.74484 34.8985C8.53115 34.6273 8.09553 34.6026 7.84895 34.8492Z" fill="#1B2B4D"/>
</svg>
