<svg xmlns="http://www.w3.org/2000/svg" width="35" height="35" fill-rule="evenodd" clip-rule="evenodd" image-rendering="optimizeQuality" shape-rendering="geometricPrecision" text-rendering="geometricPrecision" viewBox="0 0 512 512" id="Facebook"><defs><linearGradient id="a" x1="67.83" x2="474.19" y1="82.42" y2="389.98" gradientUnits="userSpaceOnUse"><stop offset="0" stop-color="#005c53" class="stopColor3b5f9e svgShape"></stop><stop offset="1" stop-color="#17c8b7" class="stopColor178cc8 svgShape"></stop></linearGradient></defs><path fill="url(#a)" d="M256 0c141.39,0 256,114.61 256,256 0,141.39 -114.61,256 -256,256 -141.39,0 -256,-114.61 -256,-256 0,-141.39 114.61,-256 256,-256z"></path><path fill="#ffffff" d="M219.17 394.15c0,1.97 1.6,3.57 3.57,3.57l50.9 0c1.97,0 3.56,-1.6 3.56,-3.57l0 -139.27 36.9 0c1.85,0 3.4,-1.42 3.55,-3.27l3.55 -41.96c0.18,-2.08 -1.46,-3.87 -3.55,-3.87l-40.45 0 0 -29.77c0,-6.98 5.66,-12.63 12.64,-12.63l28.43 0c1.98,0 3.57,-1.6 3.57,-3.57l0 -41.97c0,-1.97 -1.59,-3.57 -3.57,-3.57l-48.04 0c-28.2,0 -51.06,22.86 -51.06,51.05l0 40.46 -25.44 0c-1.97,0 -3.57,1.6 -3.57,3.57l0 41.96c0,1.98 1.6,3.57 3.57,3.57l25.44 0 0 139.27z" class="colorffffff svgShape"></path></svg>