<svg xmlns="http://www.w3.org/2000/svg" width="40" height="40" fill-rule="evenodd" clip-rule="evenodd" image-rendering="optimizeQuality" shape-rendering="geometricPrecision" text-rendering="geometricPrecision" viewBox="0 0 512 512" id="youtube"><defs><linearGradient id="a" x1="67.83" x2="474.19" y1="82.42" y2="389.98" gradientUnits="userSpaceOnUse"><stop offset="0" stop-color="#aa2f33"></stop><stop offset="1" stop-color="#e7332f"></stop></linearGradient></defs><path fill="url(#a)" d="M256 0c141.39,0 256,114.61 256,256 0,141.39 -114.61,256 -256,256 -141.39,0 -256,-114.61 -256,-256 0,-141.39 114.61,-256 256,-256z"></path><path fill="#fff" d="M296.1 259.72l-62.8 34.45c-2.74,1.47 -5.19,-0.5 -5.19,-3.6l0 -70.72c0,-3.14 2.53,-5.11 5.26,-3.56l63.24 36.26c2.8,1.6 2.32,5.64 -0.51,7.17zm99.37 -40.62c0,-33.54 -27.19,-60.73 -60.72,-60.73l-157.49 0c-33.54,0 -60.73,27.19 -60.73,60.73l0 73.8c0,33.54 27.19,60.73 60.73,60.73l157.49 0c33.53,0 60.72,-27.19 60.72,-60.73l0 -73.8z"></path></svg>