<svg xmlns="http://www.w3.org/2000/svg" width="114" height="118" viewBox="0 0 114 118" fill="none"><path d="M38.3896 72.1819L25.2188 76.805L38.5595 117.5L51.7304 117.5L38.3896 72.1819Z" fill="#0E131F"></path><path opacity="0.1" d="M30.6582 74.9443L25.2148 76.8561L38.5372 117.5H43.9805L30.6582 74.9443Z" fill="white"></path><path d="M16.0792 64.548C16.5718 66.2183 15.7305 68.0056 14.2008 68.5401L6.83986 71.1225C5.31016 71.657 3.67338 70.7417 3.18388 69.0713L1.10349 61.999C0.613986 60.332 1.45226 58.5414 2.98196 58.0068L10.3429 55.4245C11.8695 54.8866 13.5093 55.8053 13.9988 57.4757L16.0792 64.548Z" fill="#F1F3ED"></path><path d="M78.9014 38.9515C85.0416 59.8176 88.1897 77.3731 85.9288 78.1682C83.671 78.9599 76.8608 62.6873 70.7206 41.8212C64.5834 20.9518 61.4384 3.39629 63.6962 2.6012C65.954 1.80945 72.7642 18.0821 78.9044 38.9482L78.9014 38.9515Z" fill="#ffc107"></path><path d="M78.9014 38.9515C85.0416 59.8176 88.1897 77.3731 85.9288 78.1682C83.671 78.9599 76.8608 62.6873 70.7206 41.8212C64.5834 20.9518 61.4384 3.39629 63.6962 2.6012C65.954 1.80945 72.7642 18.0821 78.9044 38.9482L78.9014 38.9515Z" fill="black" fill-opacity="0.2"></path><path d="M41.4749 75.3784C41.582 75.7459 41.3954 76.1468 41.0588 76.2637L25.2356 81.816C24.8991 81.9329 24.532 81.7291 24.4249 81.3583L23.7763 79.1534C23.6692 78.7826 23.8559 78.3851 24.1924 78.2682L40.0156 72.7159C40.3521 72.5956 40.7192 72.8027 40.8263 73.1702L41.4749 75.3751V75.3784Z" fill="white"></path><path d="M63.3466 2.8916C63.3466 2.8916 50.2554 26.2566 36.0598 31.2376C28.4817 33.8968 29.7207 33.4625 29.7207 33.4625L41.3954 73.1301C41.3954 73.1301 42.2 72.8462 47.0125 71.1591C62.7714 65.6302 85.5486 78.2982 85.5486 78.2982C85.5486 78.2982 77.0221 60.0145 71.35 40.7386C65.6748 21.4626 63.3466 2.8916 63.3466 2.8916Z" fill="#EDEDED"></path><path d="M14.2798 38.8816C6.25496 41.6978 1.84025 51.0852 4.41626 59.8479L6.75059 67.7821C9.32966 76.5448 17.9266 81.3688 25.9514 78.5526L41.64 73.0471L29.9684 33.3794L14.2798 38.8849V38.8816Z" fill="#ffc107"></path><path d="M80.4651 37.5717C78.9018 32.2566 73.8048 29.2567 68.9189 30.6664C70.1886 37.4414 71.8988 44.2765 74.4197 50.6606C79.3637 48.8399 82.0682 43.0137 80.4651 37.5717Z" fill="#E4E5E6"></path><path opacity="0.1" d="M33.9581 46.8893L29.9809 33.3694C29.9809 33.3694 29.9717 33.3694 29.9686 33.3727C29.8493 33.4128 29.7728 33.4395 29.7239 33.4596C29.6688 33.4796 29.6505 33.4863 29.6474 33.4863L14.28 38.8782C6.98644 41.4372 2.68186 49.4249 3.89338 57.4359C3.90562 57.5161 3.9148 57.5929 3.92704 57.6731L2.98168 58.0038C1.45504 58.5417 0.61371 60.329 1.10321 61.996L2.25049 65.9013L36.0629 54.0384L33.9581 46.8859V46.8893Z" fill="white"></path><path opacity="0.8" d="M71.3506 40.7386C70.7234 38.6072 70.136 36.4825 69.5884 34.3879C65.189 17.5807 63.3472 2.8916 63.3472 2.8916C63.3472 2.8916 50.2561 26.2566 36.0605 31.2376C32.123 32.6173 30.5658 33.1652 29.9814 33.3723L33.9587 46.8922L36.0635 54.0447L71.5984 41.5771C71.5128 41.2998 71.4302 41.0225 71.3476 40.7419L71.3506 40.7386Z" fill="white"></path><path d="M66.7669 13.041C67.1708 13.9831 67.6083 15.0354 68.0764 16.218C70.6585 22.7023 73.5099 31.1243 76.1012 39.9337C78.6925 48.7432 80.8677 57.4023 82.2291 64.3143C82.4769 65.5737 82.685 66.7062 82.8594 67.7285C82.4555 66.7897 82.0211 65.7341 81.55 64.5548C78.9678 58.0705 76.1195 49.6485 73.5252 40.8424C70.9338 32.0329 68.7586 23.3738 67.3972 16.4619C67.1494 15.2024 66.9413 14.0666 66.7669 13.0477V13.041ZM64.0594 2.60792C63.9278 2.56449 63.8054 2.56449 63.6922 2.60124C61.4344 3.39299 64.5795 20.9518 70.7197 41.8179C76.557 61.6551 83.0001 77.3397 85.5608 78.1582C85.6924 78.1983 85.8148 78.2016 85.928 78.1649C88.1858 77.3731 85.0407 59.8143 78.9005 38.9482C73.0632 19.1111 66.6232 3.42306 64.0594 2.60792Z" fill="#ffc107"></path><path d="M80.4638 37.5718C79.2156 33.3291 75.7187 30.5663 71.873 30.3391C73.9443 36.4994 75.7218 42.6664 77.3065 48.9469C80.3323 46.3211 81.7151 41.8312 80.4638 37.5718Z" fill="#F1F3ED"></path><path opacity="0.1" d="M80.623 38.1801C80.6107 38.1333 80.5985 38.0865 80.5893 38.0364C80.5495 37.8828 80.5098 37.7257 80.4639 37.5721C80.418 37.4217 80.3721 37.2714 80.3201 37.1211C80.3048 37.0743 80.2864 37.0309 80.2711 36.9841C80.2344 36.8805 80.1977 36.7803 80.1579 36.6801C80.1396 36.63 80.1182 36.5799 80.0998 36.5264C80.06 36.4262 80.0172 36.3293 79.9744 36.2324C79.956 36.189 79.9377 36.1422 79.9162 36.0988C79.8551 35.9618 79.7908 35.8282 79.7235 35.6946C79.7174 35.6812 79.7082 35.6679 79.7021 35.6545C79.6409 35.5342 79.5767 35.4173 79.5124 35.3004C79.4879 35.2536 79.4604 35.2068 79.4329 35.1601C79.3839 35.0766 79.335 34.9964 79.286 34.9162C79.2554 34.8661 79.2248 34.816 79.1942 34.7659C79.1453 34.689 79.0933 34.6122 79.0413 34.5354C79.0107 34.4886 78.977 34.4418 78.9464 34.395C78.8761 34.2982 78.8057 34.2013 78.7353 34.1077C78.6955 34.0543 78.6527 34.0042 78.6129 33.9507C78.5548 33.8772 78.4936 33.8004 78.4324 33.7269C78.3896 33.6735 78.3437 33.6233 78.3009 33.5732C78.2519 33.5164 78.203 33.463 78.154 33.4062C78.1051 33.3527 78.0561 33.2993 78.0072 33.2492C77.9613 33.1991 77.9123 33.1523 77.8665 33.1055C77.8144 33.0521 77.7624 32.9986 77.7074 32.9485C77.6645 32.9084 77.6217 32.8683 77.5789 32.8283C77.4657 32.7247 77.3525 32.6211 77.2362 32.5209C77.1995 32.4908 77.1658 32.4608 77.1291 32.4307C77.0618 32.3739 76.9915 32.3205 76.9242 32.267C76.8874 32.2369 76.8507 32.2102 76.814 32.1835C76.7437 32.13 76.6702 32.0733 76.5968 32.0231C76.5662 31.9998 76.5356 31.9797 76.505 31.9597C76.2266 31.7659 75.9421 31.5888 75.6484 31.4285H75.6453C75.5505 31.375 75.4526 31.3249 75.3577 31.2748C75.3394 31.2648 75.321 31.2581 75.3027 31.2481C75.2048 31.198 75.1069 31.1546 75.009 31.1078C74.9998 31.1044 74.9906 31.1011 74.9845 31.0978C74.5531 30.904 74.1095 30.747 73.6537 30.6234H73.6475C72.1362 30.2158 70.5208 30.2024 68.9238 30.6635C69.6122 34.3282 70.4291 38.013 71.4325 41.631L80.675 38.3905C80.6597 38.3204 80.6444 38.2469 80.6291 38.1767L80.623 38.1801Z" fill="white"></path><path d="M81.4252 58.7852C81.8719 60.7496 82.2696 62.6271 82.6123 64.3876C83.0926 66.833 83.42 68.8074 83.6433 70.3942C82.9794 68.9611 82.1931 67.1504 81.2753 64.8587C78.6718 58.3409 75.7959 49.8522 73.1771 40.9592C70.5582 32.0629 68.3677 23.3369 67.0093 16.3815C66.5321 13.9361 66.2017 11.9618 65.9814 10.3749C66.1772 10.7992 66.3852 11.2602 66.6055 11.7513C66.5107 10.1344 66.6116 8.52417 67.3061 7.091C65.7244 3.99416 64.4548 2.33716 63.6991 2.60442C61.4412 3.39617 64.5863 20.955 70.7265 41.8211C76.8667 62.6872 83.6739 78.9598 85.9348 78.1681C87.336 77.677 86.6568 70.7316 84.4755 60.5491L81.4314 58.7886L81.4252 58.7852Z" fill="#ffc107"></path><path d="M85.5157 21.1931L82.1028 19.0618L98.5776 0.936279L101.027 3.6673L85.5157 21.1931Z" fill="#ffc107"></path><path d="M108.008 26.0626L109.988 29.7716L87.4204 36.474L86.5494 32.7713L108.008 26.0626Z" fill="#ffc107"></path><path d="M110.904 55.3806L112.884 51.6715L90.3169 44.9691L89.4458 48.6718L110.904 55.3806Z" fill="#ffc107"></path></svg>