<svg width="75" height="26" viewBox="0 0 75 26" fill="none" xmlns="http://www.w3.org/2000/svg">
<path fill-rule="evenodd" clip-rule="evenodd" d="M31.4771 15.8065C31.7977 15.7447 32.1177 15.6212 32.4371 15.4976C34.1612 14.9416 36.172 14.3238 37.6565 13.2118C39.6031 11.7292 40.3555 10.0614 40.3388 8.39342C40.3135 6.04594 38.5819 3.63693 36.2091 2.15432C33.8579 0.671704 30.9137 0.0537069 28.5421 0.980341C26.9168 1.5981 25.53 2.95716 24.7738 5.30463C23.9016 7.96099 24.6151 10.4938 26.1526 12.7177C26.7296 13.5826 27.424 14.3238 28.1888 15.0651C27.1824 15.2504 26.1662 15.436 25.1358 15.6213C21.7623 16.1155 18.2163 16.2392 14.8156 16.0538C10.3171 15.8685 6.01379 14.9415 1.85629 13.2118C1.47204 13.0882 1.0322 13.2737 0.874054 13.6443C0.71653 14.015 0.899399 14.4472 1.28365 14.6325C5.60485 16.424 10.0774 17.4129 14.7526 17.5982C18.2522 17.7218 21.9006 17.6595 25.3724 17.1035C26.8106 16.8564 28.2221 16.6095 29.6176 16.3006C31.4487 17.7214 33.4829 18.8335 35.2127 19.513C46.7838 23.8373 62.3655 18.216 72.8507 12.6562C73.2176 12.4708 73.3573 12.0381 73.1633 11.6674C72.9687 11.2968 72.5134 11.1732 72.1465 11.3585C61.998 16.733 46.9432 22.2931 35.7439 18.0923C34.4269 17.5981 32.9152 16.7949 31.4771 15.8065ZM29.9797 14.6325C30.6407 14.509 31.2973 14.324 31.9521 14.0769C33.5324 13.5209 35.3893 13.0268 36.749 12.0384C38.2187 10.9265 38.8469 9.69046 38.8346 8.45495C38.8142 6.47813 37.3254 4.6251 35.406 3.45137C33.4657 2.21585 31.0478 1.59798 29.0901 2.40106C27.8299 2.89526 26.7902 3.94569 26.2039 5.73718C25.4855 7.96111 26.123 10.0611 27.39 11.8526C28.0949 12.9028 28.9931 13.8294 29.9797 14.6325Z" fill="#FFD000"/>
<path fill-rule="evenodd" clip-rule="evenodd" d="M72.9656 11.917C72.7475 12.2258 72.4214 12.5347 72.0946 12.8436C71.4663 13.4613 70.8004 14.0174 70.4495 14.5117C68.2886 17.4769 65.7341 21.0597 64.6012 24.581C64.4733 24.9516 64.6901 25.384 65.0855 25.5076C65.4803 25.6311 65.9046 25.4459 66.0325 25.0135C67.1198 21.6776 69.5939 18.2796 71.6677 15.3761C72.047 14.8819 72.8501 14.2028 73.4938 13.585C74.0399 13.029 74.4754 12.4729 74.6335 11.917C74.7447 11.6081 74.6212 11.0521 73.9256 10.6814C72.9397 10.1872 70.2018 9.75444 69.9367 9.69267C67.252 9.07491 64.8897 8.45728 63.1946 6.1098C62.9505 5.80092 62.4792 5.73927 62.1437 5.9246C61.8083 6.1717 61.7342 6.66602 61.9788 6.9749C63.9111 9.63126 66.557 10.496 69.6174 11.1755C69.8126 11.1755 71.449 11.4226 72.5863 11.7933C72.7092 11.8551 72.8445 11.8552 72.9656 11.917Z" fill="#FFD000"/>
</svg>
