<svg width="42" height="42" viewBox="0 0 42 42" fill="none" xmlns="http://www.w3.org/2000/svg">
<path d="M9.183 17.8041C13.8903 17.8041 17.7201 13.9743 17.7201 9.26699C17.7201 4.5597 13.8903 0.729883 9.183 0.729883C4.47571 0.729883 0.645898 4.5597 0.645898 9.26699C0.645898 13.9743 4.47571 17.8041 9.183 17.8041ZM9.183 2.32021C13.0132 2.32021 16.1298 5.43683 16.1298 9.26699C16.1298 13.0971 13.0132 16.2138 9.183 16.2138C5.35285 16.2138 2.23622 13.0971 2.23622 9.26699C2.23622 5.43683 5.35285 2.32021 9.183 2.32021Z" fill="#F6633E" stroke="#F6633E" stroke-width="0.3"/>
<path d="M11.1187 10.7073H11.2687V10.5573V9.26695V9.11695H11.1187H9.97841V6.04114V5.89114H9.82841H8.53809H8.38809V6.04114V9.91211C8.38809 10.3508 8.74342 10.7073 9.18325 10.7073H11.1187Z" fill="#F6633E" stroke="#F6633E" stroke-width="0.3"/>
<path d="M19.5056 11.0521H19.3556V11.2021V12.4925V12.6425H19.5056H31.1185C32.8145 12.6425 34.1943 14.0223 34.1943 15.7183C34.1943 17.4142 32.8145 18.7941 31.1185 18.7941H11.7636C5.63302 18.7941 0.645898 23.7812 0.645898 29.9118C0.645898 36.0425 5.63302 41.0296 11.7636 41.0296H30.4733H30.6233V40.8796V39.5893V39.4393H30.4733H11.7636C6.51038 39.4393 2.23622 35.1651 2.23622 29.9118C2.23622 24.6586 6.51038 20.3844 11.7636 20.3844H31.1185C33.691 20.3844 35.7846 18.2913 35.7846 15.7183C35.7846 13.1453 33.691 11.0521 31.1185 11.0521H19.5056Z" fill="#005C53" stroke="#005C53" stroke-width="0.3"/>
<path d="M19.5064 5.89114H19.3564V6.04114V7.33146V7.48146H19.5064H31.1193C35.6609 7.48146 39.3564 11.177 39.3564 15.7186C39.3564 20.2602 35.6609 23.9557 31.1193 23.9557H11.7645C8.4797 23.9557 5.80801 26.6274 5.80801 29.9121C5.80801 33.1969 8.4797 35.8686 11.7645 35.8686H30.4742H30.6242V35.7186V34.4283V34.2783H30.4742H11.7645C9.35765 34.2783 7.39833 32.3189 7.39833 29.9121C7.39833 27.5053 9.35765 25.546 11.7645 25.546H31.1193C36.5383 25.546 40.9468 21.1375 40.9468 15.7186C40.9468 10.2996 36.5383 5.89114 31.1193 5.89114H19.5064Z" fill="#005C53" stroke="#005C53" stroke-width="0.3"/>
<path d="M35.7157 27.8599L35.7155 27.86C33.3713 28.1359 31.6127 30.2029 31.6127 32.6703C31.6127 33.9772 31.9962 35.2438 32.7217 36.3321L35.6172 40.6754L35.6172 40.6754C35.7651 40.897 36.0131 41.0299 36.2788 41.0299C36.5445 41.0299 36.7925 40.8971 36.9404 40.6762L36.9405 40.676L39.836 36.3327C40.5615 35.2447 40.945 33.9784 40.945 32.6708V32.4928C40.945 31.1608 40.3745 29.8898 39.3779 29.0045C38.3829 28.1203 37.0499 27.7047 35.7157 27.8599ZM38.3208 30.1932L38.3209 30.1933C38.9781 30.7772 39.3546 31.6152 39.3546 32.4927V32.4928L39.3547 32.6702C39.3547 32.6702 39.3547 32.6702 39.3547 32.6702C39.3547 33.6624 39.0633 34.6231 38.5126 35.4502L36.2789 38.8009L34.0451 35.4502C33.4945 34.6242 33.203 33.6626 33.203 32.6552C33.203 31.0241 34.3971 29.6166 35.9018 29.439C36.03 29.4243 36.157 29.4169 36.2826 29.4169C37.0388 29.4169 37.751 29.686 38.3208 30.1932Z" fill="#F6633E" stroke="#F6633E" stroke-width="0.3"/>
<path d="M36.2802 30.4076C35.1302 30.4076 34.1947 31.3431 34.1947 32.4931C34.1947 33.6431 35.1302 34.5786 36.2802 34.5786C37.4302 34.5786 38.3657 33.6431 38.3657 32.4931C38.3657 31.3431 37.4302 30.4076 36.2802 30.4076ZM36.2802 32.9883C36.0071 32.9883 35.7851 32.7662 35.7851 32.4931C35.7851 32.22 36.0071 31.9979 36.2802 31.9979C36.5534 31.9979 36.7754 32.22 36.7754 32.4931C36.7754 32.7662 36.5534 32.9883 36.2802 32.9883Z" fill="#F6633E" stroke="#F6633E" stroke-width="0.3"/>
<path d="M28.5381 37.0089H30.4736V38.2992H28.5381V37.0089Z" fill="#005C53"/>
<path d="M23.376 37.0089H25.9566V38.2992H23.376V37.0089Z" fill="#005C53"/>
<path d="M18.2158 37.0089H20.7965V38.2992H18.2158V37.0089Z" fill="#005C53"/>
<path d="M13.0537 37.0089H15.6344V38.2992H13.0537V37.0089Z" fill="#005C53"/>
<path d="M8.21565 36.0599L7.56934 37.176C8.43658 37.678 9.37697 38.0167 10.366 38.1832L10.5803 36.9101C9.74358 36.7702 8.94863 36.4845 8.21565 36.0599Z" fill="#005C53"/>
<path d="M4.9504 34.8051L5.99762 34.0516C5.48207 33.3362 5.10995 32.5401 4.88994 31.6864L3.63965 32.009C3.90001 33.0174 4.34126 33.9586 4.9504 34.8051Z" fill="#005C53"/>
<path d="M3.40527 29.2139L4.69184 29.3196C4.75895 28.4976 4.96805 27.7016 5.3105 26.955L4.13771 26.417C3.73218 27.3003 3.48592 28.2418 3.40527 29.2139Z" fill="#005C53"/>
<path d="M7.07069 24.5894C7.75646 23.9837 8.53959 23.5223 9.39843 23.2184L8.96871 22.0024C7.95319 22.361 7.02688 22.9057 6.21582 23.6217L7.07069 24.5894Z" fill="#005C53"/>
<path d="M11.7627 21.525H14.3433V22.8153H11.7627V21.525Z" fill="#005C53"/>
<path d="M16.9248 21.525H19.5055V22.8153H16.9248V21.525Z" fill="#005C53"/>
<path d="M22.0869 21.525H24.6676V22.8153H22.0869V21.525Z" fill="#005C53"/>
<path d="M27.2471 21.525H29.8277V22.8153H27.2471V21.525Z" fill="#005C53"/>
<path d="M32.5366 22.6733C33.5727 22.463 34.5289 22.0333 35.3773 21.3953L34.6023 20.3643C33.9081 20.8856 33.1273 21.2373 32.2803 21.4089L32.5366 22.6733Z" fill="#005C53"/>
<path d="M37.6244 18.5581C38.0167 17.6606 38.2154 16.7052 38.2154 15.7188H36.9251C36.9251 16.5263 36.7627 17.3078 36.4424 18.0413L37.6244 18.5581Z" fill="#005C53"/>
<path d="M35.3779 10.0411L34.6025 11.0728C35.4053 11.6759 36.0412 12.4798 36.4424 13.3966L37.6244 12.8799C37.1348 11.7592 36.358 10.7779 35.3778 10.0412L35.3779 10.0411Z" fill="#005C53"/>
<path d="M32.2813 10.0279L32.5382 8.76358C32.0736 8.6694 31.5969 8.62158 31.1194 8.62158H29.8291V9.91191H31.1194C31.5103 9.91191 31.9019 9.95134 32.2813 10.0279Z" fill="#005C53"/>
<path d="M24.667 8.62207H27.2476V9.91239H24.667V8.62207Z" fill="#005C53"/>
<path d="M19.5049 8.62207H22.0855V9.91239H19.5049V8.62207Z" fill="#005C53"/>
</svg>
