<svg width="69" height="49" viewBox="0 0 69 49" fill="none" xmlns="http://www.w3.org/2000/svg">
<path opacity="0.5" d="M30.2532 14.1918C30.2532 23.4246 27.7288 30.9787 22.68 36.8541C17.5137 42.8344 10.0579 46.7164 0.312508 48.5L0.312505 36.6967C4.42201 35.8574 7.82703 34.3361 10.5276 32.1328C13.1107 29.9295 14.8132 27.2541 15.6351 24.1066L3.83494 24.1066L3.83494 0.499999L30.2532 0.499995L30.2532 14.1918ZM69 14.1918C69 23.4246 66.4756 30.9787 61.4268 36.8541C56.2605 42.8344 48.8047 46.7164 39.0593 48.5L39.0593 36.6967C43.1688 35.8574 46.5738 34.3361 49.2744 32.1328C51.8575 29.9295 53.56 27.2541 54.3819 24.1066L42.5817 24.1066L42.5817 0.499993L69 0.499989L69 14.1918Z" fill="#FFA733"/>
</svg>
