<svg width="35" height="31" viewBox="0 0 35 31" fill="none" xmlns="http://www.w3.org/2000/svg">
<path d="M3.82035 13.446L5.2668 13.3702L6.62583 15.0777C6.72956 15.2059 6.88575 15.2794 7.05009 15.2794C7.141 15.2794 7.23075 15.2572 7.31117 15.2141L8.83921 14.3493C8.95227 14.291 9.03968 14.1919 9.08397 14.0719L10.5526 10.3409L12.6459 9.16025L17.2533 6.1846C17.3256 6.13565 17.3873 6.07038 17.4328 5.99462L19.011 3.19846C19.096 3.03878 19.096 2.84763 19.011 2.68795L18.4177 1.52357L19.5051 1.67626L23.3783 5.54938L24.6126 7.63221C24.7058 7.79073 24.8748 7.89096 25.0578 7.89912L27.8971 8.04015C28.0859 8.04715 28.2654 7.9574 28.3703 7.80122L28.8598 7.08324L31.2422 7.62755L32.3903 8.37816L31.6234 9.95049C31.5464 10.0799 31.5278 10.2372 31.5709 10.3817C31.6152 10.5263 31.7166 10.6463 31.8518 10.7128C31.987 10.7792 32.1455 10.7862 32.2866 10.7326C32.4276 10.679 32.5406 10.5682 32.5966 10.4284L33.5757 8.42712C33.6945 8.18118 33.6129 7.8863 33.3857 7.73595L31.7539 6.64849C31.6991 6.61236 31.6385 6.58671 31.5744 6.57273L28.7351 5.92002C28.5253 5.88156 28.3132 5.96897 28.192 6.14264L27.6477 6.91423L25.4063 6.80584L24.3189 4.91881C24.2921 4.88035 24.2641 4.84422 24.2314 4.81042L20.1858 0.756638C20.1019 0.673884 19.9923 0.620269 19.8758 0.603951L17.5424 0.299743C17.3431 0.277598 17.1484 0.366179 17.0342 0.531687C16.92 0.69603 16.9071 0.910491 16.998 1.08882L17.9282 2.92223L16.5575 5.34307L12.1027 8.2313L9.87305 9.48776C9.76349 9.54954 9.67957 9.64861 9.63411 9.76517L8.16552 13.4903L7.20861 13.9914L5.95797 12.4413C5.84841 12.3061 5.68057 12.2315 5.50574 12.2396L4.14554 12.3107C4.06978 12.1475 3.99868 11.9844 3.95556 11.8865C4.03715 11.6417 4.25977 11.0543 4.45558 10.5647C4.56048 10.2815 4.41595 9.96564 4.13156 9.86074C3.84833 9.75584 3.53246 9.90037 3.42756 10.1836C2.85645 11.6743 2.85645 11.8154 2.85645 11.9191C2.85645 12.0228 2.85645 12.186 3.32966 13.1371C3.41941 13.3259 3.61056 13.4471 3.81919 13.4471L3.82035 13.446Z" fill="#005C53" stroke="#005C53" stroke-width="0.5" stroke-linejoin="round"/>
<path d="M24.4521 26.1977V26.9262C24.444 27.1803 24.6141 27.4064 24.8601 27.4705L26.1165 27.7969L27.1667 29.2107C27.2704 29.3494 27.4336 29.4298 27.6073 29.4286H29.6528C29.7682 29.4286 29.8801 29.3925 29.9733 29.3249L31.126 28.4869L30.8183 30.2958H31.8941L32.4035 27.291C32.4466 27.0719 32.351 26.8481 32.1622 26.7281C31.9734 26.608 31.731 26.6162 31.5503 26.7467L29.4616 28.2584H27.8788L26.8776 26.9099C26.8042 26.8108 26.6981 26.7397 26.5781 26.7082L25.5128 26.5019V26.0404C25.5128 25.939 25.486 25.8399 25.437 25.7525L23.022 21.8304L24.8985 19.2849C24.9428 19.2243 24.9743 19.1566 24.9906 19.0832L25.9044 15.0796L29.9022 13.2951L30.6913 13.3709C30.8953 13.3907 31.0934 13.2939 31.203 13.1214L31.7473 12.2613L33.1343 12.9035C33.4047 13.0049 33.7089 12.8767 33.8243 12.6121C33.9397 12.3475 33.829 12.0375 33.5702 11.9081L31.7531 11.1144C31.5049 11.006 31.2158 11.0969 31.0724 11.3265L30.4628 12.2951L29.8649 12.2356C29.7717 12.2263 29.6784 12.2414 29.5934 12.2787L25.2144 14.2369C25.0582 14.3056 24.9428 14.4455 24.9043 14.6122L23.9521 18.7359L21.9287 21.4877C21.8063 21.6707 21.8063 21.9085 21.9287 22.0915L24.4521 26.1977Z" fill="#005C53" stroke="#005C53" stroke-width="0.5" stroke-linejoin="round"/>
<path d="M1.77085 17.2541L1.31862 18.1143C1.18225 18.3766 1.28132 18.7018 1.54124 18.8428L5.03323 20.7473L8.80844 26.8991L10.6815 30.2966H11.9216L9.74904 26.3501L5.88757 20.0573C5.83862 19.9769 5.76869 19.9116 5.68593 19.8661L2.5203 18.1201L2.83034 17.5222C2.89794 17.3893 2.90843 17.2332 2.85715 17.0933L1.76969 14.0967L2.27554 12.4649C2.35363 12.1817 2.19278 11.888 1.91189 11.8005C1.63099 11.7143 1.33144 11.8658 1.23703 12.1444L0.693886 13.958C0.655423 14.0675 0.655423 14.1864 0.693886 14.2948L1.77085 17.253V17.2541Z" fill="#005C53" stroke="#005C53" stroke-width="0.5" stroke-linejoin="round"/>
<path d="M18.1908 27.6632L18.2503 27.7528L23.9024 20.5202C24.422 19.572 24.6951 18.5018 24.6951 17.4224C24.6951 13.8658 21.8016 10.9717 18.2444 10.9717C14.6879 10.9717 11.7937 13.8658 11.7937 17.4224C11.7937 18.5024 12.0668 19.5726 12.5835 20.5159L12.5864 20.5208L18.1908 27.6632ZM18.2446 20.2893C16.6634 20.2893 15.3776 19.0035 15.3776 17.4223C15.3776 15.8412 16.6634 14.5554 18.2446 14.5554C19.8257 14.5554 21.1115 15.8412 21.1115 17.4223C21.1115 19.0035 19.8257 20.2893 18.2446 20.2893ZM18.2446 15.9889C17.4541 15.9889 16.8111 16.6318 16.8111 17.4223C16.8111 18.2129 17.4541 18.8558 18.2446 18.8558C19.0351 18.8558 19.6781 18.2129 19.6781 17.4223C19.6781 16.6318 19.0351 15.9889 18.2446 15.9889Z" fill="white"/>
<path d="M18.2446 29.1967C17.7787 29.1967 17.3429 28.9623 17.0764 28.576L16.9824 28.4419L11.3251 21.2011C10.6936 20.048 10.3604 18.7413 10.3604 17.4218C10.3604 13.0746 13.8975 9.5376 18.2445 9.5376C22.5916 9.5376 26.1287 13.0747 26.1287 17.4218C26.1287 18.7414 25.7946 20.0494 25.1625 21.2032L19.5068 28.4415L19.4086 28.5806C19.1419 28.9641 18.7084 29.1967 18.2446 29.1967ZM18.1908 27.6629L18.2503 27.7525L23.9024 20.5199C24.422 19.5717 24.6951 18.5015 24.6951 17.4221C24.6951 13.8656 21.8016 10.9714 18.2444 10.9714C14.6879 10.9714 11.7937 13.8656 11.7937 17.4221C11.7937 18.5022 12.0668 19.5723 12.5835 20.5156L12.5864 20.5206L18.1908 27.6629ZM18.2446 20.289C16.6634 20.289 15.3776 19.0032 15.3776 17.4221C15.3776 15.8409 16.6634 14.5551 18.2446 14.5551C19.8257 14.5551 21.1115 15.8409 21.1115 17.4221C21.1115 19.0032 19.8257 20.289 18.2446 20.289ZM18.2446 15.9886C17.4541 15.9886 16.8111 16.6316 16.8111 17.4221C16.8111 18.2126 17.4541 18.8556 18.2446 18.8556C19.0351 18.8556 19.6781 18.2126 19.6781 17.4221C19.6781 16.6316 19.0351 15.9886 18.2446 15.9886Z" fill="#F6633E" stroke="#F6633E" stroke-width="0.5"/>
</svg>
