<svg width="42" height="42" viewBox="0 0 42 42" fill="none" xmlns="http://www.w3.org/2000/svg">
<path d="M19.3445 0.0210266C13.2843 0.571205 7.79898 3.59308 4.20229 8.34761C3.04446 9.88318 1.91947 11.9607 1.2379 13.8001C0.82732 14.9251 0.342835 16.8795 0.153968 18.1605C-0.0513226 19.6057 -0.0513226 22.5209 0.153968 23.8676C0.851955 28.425 2.83917 32.4569 5.95137 35.6348C7.69223 37.4167 9.35919 38.6485 11.4449 39.6996C16.6757 42.3519 22.7523 42.7296 28.1884 40.7342C30.0853 40.0444 32.4831 38.6977 34.0679 37.4414C34.922 36.768 36.5889 35.1093 37.2869 34.2553C41.3352 29.279 42.879 22.6851 41.483 16.395C41.1546 14.9415 41.0232 14.572 40.7194 14.2682C40.4648 14.0136 40.4155 13.9972 39.9967 14.03C39.4794 14.0711 39.192 14.2846 39.0524 14.7116C38.9785 14.9333 39.0113 15.1632 39.2495 16.0912C39.6929 17.8074 39.8736 19.2116 39.8736 20.9935C39.8653 23.9743 39.3152 26.4789 38.067 29.0984C36.6464 32.0874 34.4703 34.6658 31.7851 36.5299C28.5908 38.7552 24.9448 39.8966 21.0279 39.8966C19.4348 39.8966 18.6958 39.8309 17.2506 39.5435C11.5106 38.3939 6.5426 34.5755 3.997 29.3365C2.19045 25.6166 1.63206 21.5601 2.38753 17.5446C2.95413 14.4817 4.30905 11.5337 6.24699 9.13592C6.90392 8.31476 8.34916 6.86131 9.11284 6.24543C10.6813 4.98084 13.0462 3.69983 14.9677 3.06754C17.267 2.31207 19.0243 2.06572 21.5452 2.13141C23.3107 2.17247 24.4357 2.3367 26.0616 2.77192C26.8581 2.98542 27.0306 3.01006 27.2687 2.92794C27.7122 2.78013 27.9667 2.41882 27.9667 1.92612C27.9667 1.57302 27.9339 1.4827 27.6957 1.24456C27.5233 1.07212 27.2605 0.932518 26.9403 0.833977C26.1437 0.604053 24.7642 0.308437 23.8445 0.168839C23.0315 0.053875 20.1082 -0.0446663 19.3445 0.0210266Z" fill="#1B2B4D"/>
<path d="M33.9945 2.34492C33.8221 2.47631 32.2865 3.97903 30.5785 5.68705C27.9754 8.30656 27.4745 8.84852 27.4006 9.12772C27.3513 9.31659 27.3103 10.2281 27.3103 11.3038V13.1432L23.7054 16.7645C20.5521 19.9178 20.0923 20.4187 20.043 20.6815C19.9609 21.1003 20.043 21.3795 20.3222 21.6586C20.6014 21.9378 20.8806 22.02 21.2994 21.9378C21.5621 21.8886 22.0548 21.4287 25.2163 18.2755L28.8376 14.6706H30.677C31.7528 14.6706 32.6642 14.6295 32.8531 14.5802C33.1323 14.5063 33.6743 14.0054 36.2938 11.4023C38.0018 9.69432 39.5045 8.15875 39.6359 7.9863C39.9069 7.61678 39.948 7.17335 39.7509 6.78741C39.5374 6.36862 39.3978 6.33577 37.4927 6.29471L35.7272 6.25365L35.6861 4.48815C35.6451 2.58306 35.6122 2.44346 35.1934 2.22996C34.8075 2.03288 34.3641 2.07394 33.9945 2.34492ZM33.781 7.83849C34.011 8.24086 34.3312 8.34761 35.3577 8.34761H36.302L34.208 10.4416L32.1141 12.5355H30.7838H29.4453V11.2053V9.86676L31.5228 7.78922L33.5922 5.7199L33.6332 6.68066C33.6579 7.25547 33.7153 7.72353 33.781 7.83849Z" fill="#1B2B4D"/>
<path d="M18.8925 6.42612C13.4318 7.27191 8.99753 10.9754 7.19918 16.1651C5.93459 19.8357 6.18094 23.8594 7.89717 27.3575C11.0833 33.894 18.6462 37.1047 25.585 34.8712C26.6361 34.5345 28.2456 33.7462 29.1981 33.1057C32.4171 30.9542 34.667 27.5792 35.4471 23.7444C35.6196 22.874 35.751 20.3612 35.6524 19.8111C35.5293 19.1541 34.8313 18.7271 34.2729 18.9653C34.1251 19.0309 33.9116 19.1788 33.8048 19.3019C33.6077 19.5072 33.5995 19.5565 33.5913 20.9771C33.5749 22.0692 33.5338 22.6358 33.4025 23.2681C32.3678 28.3429 28.6479 32.1203 23.5649 33.2453C22.8834 33.3931 22.4892 33.4259 21.0686 33.4259C19.6316 33.4259 19.2703 33.4013 18.5805 33.2453C16.002 32.6704 13.9984 31.5865 12.1918 29.78C10.3771 27.9734 9.21103 25.7891 8.6937 23.2353C8.47198 22.1349 8.49662 19.5154 8.73476 18.4233C8.99753 17.249 9.35063 16.2472 9.86796 15.229C11.6581 11.7472 14.8114 9.37409 18.7119 8.57756C19.3442 8.44617 19.9108 8.40512 21.0193 8.38869L22.4892 8.38048L22.7602 8.07665C23.1051 7.70713 23.1379 7.28012 22.8505 6.86133C22.5221 6.36863 22.2593 6.29473 20.8633 6.30294C20.19 6.31115 19.3031 6.36042 18.8925 6.42612Z" fill="#1B2B4D"/>
<path d="M19.8861 12.6258C17.2173 13.0364 14.8442 14.7116 13.6453 17.0437C11.5924 21.0427 12.9965 25.9286 16.8314 28.1458C18.2684 28.9752 19.6972 29.3283 21.356 29.2626C22.7109 29.2051 23.5403 28.9998 24.7227 28.425C27.4736 27.0865 29.3377 24.2617 29.3869 21.3466C29.4034 20.5254 29.3951 20.509 29.1652 20.2626C28.5658 19.6303 27.6214 19.852 27.3915 20.6732C27.3422 20.8292 27.3094 21.1413 27.3094 21.3712C27.3094 21.946 27.0384 22.9725 26.6935 23.6705C25.897 25.2964 24.3861 26.5363 22.6534 26.9962C21.8897 27.2014 20.5348 27.2425 19.7958 27.0783C17.4472 26.5692 15.5996 24.8119 14.9755 22.488C14.7456 21.6175 14.7456 20.2134 14.9755 19.3429C15.5668 17.1258 17.3241 15.3931 19.5412 14.8348C19.9025 14.7444 20.3788 14.6705 20.6087 14.6705C21.4381 14.6705 21.8897 14.416 22.0457 13.8658C22.1525 13.5127 22.0293 13.1103 21.7255 12.8229C21.5038 12.6094 21.4052 12.5766 20.9208 12.5683C20.6169 12.5519 20.1489 12.5848 19.8861 12.6258Z" fill="#1B2B4D"/>
</svg>
