<svg width="42" height="30" viewBox="0 0 42 30" fill="none" xmlns="http://www.w3.org/2000/svg">
<path d="M19.6021 0.051775C13.7379 0.503068 7.45535 3.74023 1.50911 9.37271C0.23785 10.579 0 10.8654 0 11.1518C0 11.4296 0.344472 11.7941 0.615128 11.7941C0.762759 11.7941 1.14004 11.4903 1.98481 10.6832C3.55134 9.20781 3.96143 8.84331 5.16708 7.87129C9.5796 4.3217 13.9757 2.19542 18.3308 1.50112C19.6759 1.29283 22.3086 1.28415 23.6209 1.50112C27.2625 2.08259 30.7072 3.53194 34.3488 6.01405C34.9557 6.42195 35.5216 6.76042 35.6036 6.76042C36.0137 6.76042 36.3008 6.35252 36.2023 5.92726C36.0793 5.4239 32.1425 2.99386 29.764 1.96109C26.3439 0.468353 22.7843 -0.199907 19.6021 0.051775Z" fill="#1B2B4D"/>
<path d="M19.8887 4.16556C15.7797 4.4346 11.2769 6.40467 7.02023 9.78936C5.39629 11.0825 5.16664 11.3168 5.16664 11.6726C5.16664 12.0371 5.41269 12.3149 5.74076 12.3149C5.90479 12.3149 6.11804 12.1934 6.4133 11.9417C8.3489 10.2927 9.7678 9.27732 11.9248 8.01891L12.4908 7.68912L11.851 8.48756C9.79241 11.0131 8.77539 13.851 8.77539 17.0274C8.77539 20.4381 9.91543 23.493 12.0889 25.9318L12.5072 26.4004L11.687 25.9404C9.41513 24.6733 7.04483 22.8508 4.65813 20.5249C3.47709 19.3793 1.55789 17.227 1.55789 17.0534C1.55789 16.9319 3.01779 15.2483 3.90358 14.337C4.37928 13.851 4.5105 13.6601 4.5105 13.4691C4.5105 12.9397 4.05121 12.636 3.62472 12.8703C3.21463 13.1046 0.344036 16.3418 0.147195 16.7931C0.00776594 17.1055 0.12259 17.3572 0.713113 18.0949C2.091 19.7959 4.27265 22.0263 6.03602 23.5104C10.6864 27.4419 15.1891 29.5508 19.7821 29.95C21.7259 30.1149 23.8501 29.8719 26.04 29.221C30.5509 27.8932 35.4884 24.4998 39.7779 19.8046C41.1885 18.2511 41.9103 17.3225 41.9103 17.0448C41.9103 16.5761 38.9331 13.2435 36.8662 11.4036C31.0512 6.20506 25.4085 3.80973 19.8887 4.16556ZM20.3398 6.882V8.29663L19.9133 8.17512C19.0685 7.93212 18.1992 8.1838 17.5102 8.85206C16.9607 9.39014 16.7146 9.95426 16.6654 10.7527C16.608 11.8896 17.1083 12.8443 18.0515 13.3997C18.4534 13.634 18.5682 13.6601 19.2326 13.6601C19.6427 13.6601 20.0527 13.6254 20.1594 13.5906L20.3398 13.5212V14.9532V16.3939H18.2484H16.1487L15.9519 16.6108C15.6484 16.9233 15.6894 17.1923 16.1159 17.6957C16.649 18.3379 16.7475 18.876 16.4358 19.5356C16.1405 20.1517 15.427 20.4989 14.8447 20.308C14.1803 20.0997 13.762 19.5182 13.762 18.8152C13.7702 18.3205 13.9097 18.0168 14.3033 17.6176C14.6642 17.2531 14.6888 16.9146 14.3936 16.6108L14.1967 16.3939H12.0971H10.0056V16.1943C10.0056 16.0814 10.0631 15.6215 10.1369 15.1702C10.8258 10.8655 13.7456 7.29857 17.6496 5.97941C18.4452 5.71037 19.5114 5.47604 20.0363 5.46737L20.3398 5.45869V6.882ZM22.8905 5.59755C25.0476 5.98809 26.9422 7.02085 28.5907 8.68717C30.3623 10.501 31.4695 12.7228 31.8632 15.309C31.9288 15.7343 31.9862 16.1595 31.9862 16.2376C31.9862 16.3765 31.8632 16.3939 30.6247 16.3939C29.3535 16.3939 29.2633 16.3852 29.3289 16.2376C29.3617 16.1595 29.4027 15.769 29.4273 15.3785C29.4601 14.7449 29.4355 14.6147 29.2387 14.1634C28.9598 13.5039 28.4759 12.9918 27.869 12.7054C27.4343 12.4971 27.2949 12.4711 26.7125 12.5058C25.917 12.5405 25.4413 12.7488 24.9246 13.2956C24.2684 13.9812 23.9896 15.04 24.2192 15.9339L24.334 16.3939H22.9561H21.5701V14.1114C21.5701 11.9243 21.5619 11.8115 21.406 11.664C21.119 11.3862 20.7991 11.4644 20.348 11.907C19.8887 12.3583 19.6837 12.4364 19.1177 12.3843C18.3386 12.3062 17.8301 11.6379 17.8957 10.7787C17.9367 10.258 18.1171 9.94558 18.5354 9.6505C19.1259 9.21657 19.7903 9.32071 20.3808 9.92822C20.7991 10.3708 21.1272 10.4403 21.406 10.1452C21.5619 9.9803 21.5701 9.85879 21.5701 7.71515V5.45869H21.8407C21.9965 5.45869 22.464 5.51944 22.8905 5.59755ZM31.3301 8.78263C33.4379 10.1018 35.4802 11.7508 37.4978 13.7642C38.605 14.8664 40.434 16.9146 40.434 17.0534C40.434 17.227 38.4246 19.4661 37.2271 20.6204C34.8322 22.9376 32.626 24.63 30.3049 25.9491L29.4847 26.4091L30.0424 25.7669C30.674 25.0379 31.5761 23.6666 31.5761 23.4236C31.5761 23.1459 31.4859 22.9897 31.2399 22.8508C30.8298 22.6339 30.6329 22.764 30.0752 23.6319C29.4601 24.5866 28.238 25.9144 27.3933 26.5393C26.6797 27.0774 25.4741 27.7283 24.6211 28.058C23.965 28.3011 22.6527 28.6048 22.0212 28.6482L21.6111 28.6742L21.5865 27.2509L21.5619 25.8363L21.8735 25.9057C22.0458 25.9491 22.464 25.9838 22.8003 25.9838C23.3088 25.9752 23.4893 25.9318 23.8501 25.7408C24.3832 25.4458 24.8507 24.9424 25.105 24.3956C25.3839 23.7968 25.3839 22.6078 25.0968 21.9916C24.8425 21.4449 24.3996 20.9762 23.8501 20.6725C23.4811 20.4729 23.3088 20.4381 22.7593 20.4381C22.3984 20.4295 21.9801 20.4642 21.8325 20.5076L21.5619 20.5857L21.5865 19.1624L21.6111 17.7391L23.7681 17.6957C25.917 17.6523 25.9334 17.6523 26.0892 17.444C26.3353 17.1229 26.286 16.8625 25.8842 16.4199C25.2526 15.7256 25.2116 14.9358 25.7529 14.2763C26.081 13.8857 26.3927 13.7642 26.9422 13.8076C27.7049 13.877 28.1396 14.3457 28.197 15.1615C28.238 15.7516 28.1314 16.0207 27.6885 16.472C27.3359 16.8278 27.2949 17.1836 27.5737 17.4961C27.7459 17.6957 27.7624 17.6957 29.8784 17.6957H32.0026L31.9452 18.2337C31.896 18.7198 31.8304 19.0843 31.4695 20.7593C31.3629 21.2279 31.4203 21.3928 31.7566 21.5924C31.9288 21.6966 32.0026 21.6966 32.2159 21.6098C32.5275 21.4709 32.7162 21.0023 32.9868 19.6744C33.1345 18.928 33.1673 18.5028 33.1755 17.0882C33.1755 15.6301 33.1509 15.2743 32.9868 14.5019C32.4701 12.0632 31.5433 10.1452 29.944 8.23587L29.5011 7.70647L30.067 8.02758C30.3787 8.20116 30.9446 8.54831 31.3301 8.78263ZM12.6712 17.8432C12.3267 18.7892 12.5892 20.0823 13.2863 20.82C13.8112 21.3754 14.4182 21.6358 15.1727 21.6445C15.714 21.6445 15.8699 21.6011 16.3456 21.3581C17.5922 20.7072 18.1581 19.1971 17.6742 17.8432C17.6168 17.7043 17.7153 17.6957 18.9701 17.6957H20.3316L20.3562 19.9608L20.3808 22.226L20.6105 22.4342C20.9385 22.7293 21.0944 22.6946 21.5783 22.2433C22.0458 21.8007 22.2754 21.6879 22.6773 21.6879C23.4565 21.6879 24.1126 22.3822 24.1126 23.2066C24.1126 24.2828 22.9972 25.0552 22.1196 24.5866C21.9719 24.5085 21.7013 24.2915 21.5126 24.1092C21.3158 23.9183 21.1108 23.7708 21.0452 23.7708C20.7909 23.7708 20.512 23.9791 20.4218 24.2307C20.3726 24.387 20.3398 25.3503 20.3398 26.5913V28.7003L19.9543 28.6569C14.9677 28.1535 10.9324 24.1353 10.1287 18.8673C9.92363 17.5655 9.7842 17.6957 11.3671 17.6957C12.6302 17.6957 12.7286 17.7043 12.6712 17.8432Z" fill="#1B2B4D"/>
<path d="M37.1953 7.23778C37.0805 7.35061 36.9902 7.55022 36.9902 7.67172C36.9902 7.94076 37.1215 8.0883 38.3025 9.11238C38.7782 9.52028 39.6148 10.2927 40.1725 10.8308C41.2633 11.8809 41.4356 11.959 41.7882 11.5771C42.1655 11.1866 42.0753 10.9696 41.2305 10.1018C40.8122 9.66782 40.0413 8.94749 39.5328 8.48752C37.7448 6.89931 37.589 6.8212 37.1953 7.23778Z" fill="#1B2B4D"/>
</svg>
